<svg width="14" height="16" viewBox="0 0 14 16" fill="none" xmlns="http://www.w3.org/2000/svg">
<path d="M13.0969 5.45517C13.0041 5.52717 11.3657 6.45038 11.3657 8.50321C11.3657 10.8776 13.4505 11.7176 13.5129 11.7384C13.5033 11.7896 13.1817 12.8889 12.4137 14.0089C11.7289 14.9945 11.0137 15.9785 9.92564 15.9785C8.83763 15.9785 8.55762 15.3465 7.30161 15.3465C6.07759 15.3465 5.64239 15.9993 4.64717 15.9993C3.65196 15.9993 2.95755 15.0873 2.15914 13.9673C1.23433 12.6521 0.487122 10.6088 0.487122 8.66961C0.487122 5.55917 2.50955 3.90955 4.49997 3.90955C5.55759 3.90955 6.4392 4.60396 7.1032 4.60396C7.73521 4.60396 8.72082 3.86795 9.92404 3.86795C10.38 3.86795 12.0185 3.90955 13.0969 5.45517ZM9.35283 2.55113C9.85044 1.96073 10.2024 1.14152 10.2024 0.322306C10.2024 0.208705 10.1928 0.0935031 10.172 0.000701904C9.36243 0.0311023 8.39922 0.539909 7.81841 1.21352C7.36241 1.73192 6.9368 2.55113 6.9368 3.38154C6.9368 3.50635 6.9576 3.63115 6.9672 3.67115C7.0184 3.68075 7.1016 3.69195 7.18481 3.69195C7.91121 3.69195 8.82483 3.20554 9.35283 2.55113Z" fill="black"/>
</svg>
