<svg width="35" height="35" viewBox="0 0 35 35" fill="none" xmlns="http://www.w3.org/2000/svg">
<rect width="35" height="35" rx="17.5" fill="white" fill-opacity="0.8"/>
<path d="M22.8347 15.2733C22.7535 15.3363 21.3199 16.1441 21.3199 17.9403C21.3199 20.0179 23.1441 20.7529 23.1987 20.7711C23.1903 20.8159 22.9089 21.7777 22.2369 22.7577C21.6377 23.6201 21.0119 24.4811 20.0599 24.4811C19.1079 24.4811 18.8629 23.9281 17.7639 23.9281C16.6929 23.9281 16.3121 24.4993 15.4413 24.4993C14.5705 24.4993 13.9629 23.7013 13.2643 22.7213C12.4551 21.5705 11.8013 19.7827 11.8013 18.0859C11.8013 15.3643 13.5709 13.9209 15.3125 13.9209C16.2379 13.9209 17.0093 14.5285 17.5903 14.5285C18.1433 14.5285 19.0057 13.8845 20.0585 13.8845C20.4575 13.8845 21.8911 13.9209 22.8347 15.2733ZM19.5587 12.7323C19.9941 12.2157 20.3021 11.4989 20.3021 10.7821C20.3021 10.6827 20.2937 10.5819 20.2755 10.5007C19.5671 10.5273 18.7243 10.9725 18.2161 11.5619C17.8171 12.0155 17.4447 12.7323 17.4447 13.4589C17.4447 13.5681 17.4629 13.6773 17.4713 13.7123C17.5161 13.7207 17.5889 13.7305 17.6617 13.7305C18.2973 13.7305 19.0967 13.3049 19.5587 12.7323Z" fill="black"/>
</svg>
