<svg width="15" height="19" viewBox="0 0 15 19" fill="none" xmlns="http://www.w3.org/2000/svg">
<path d="M6.6229 0.204269C7.05587 -0.0680895 7.48883 -0.0680895 7.9218 0.204269L8.57125 0.612807C8.78774 0.761391 9.02828 0.835684 9.29288 0.835684L10.0506 0.761391C10.5798 0.761391 10.9646 0.996582 11.2052 1.46696L11.566 2.17253C11.6862 2.39536 11.8546 2.56871 12.0711 2.69257L12.7927 3.0639C13.2257 3.31145 13.4422 3.70758 13.4422 4.2523L13.37 5.03216C13.37 5.30451 13.4422 5.5521 13.5865 5.77493L14.0194 6.4434C14.284 6.88905 14.284 7.3347 14.0194 7.78035L13.5865 8.44883C13.4422 8.67165 13.37 8.91923 13.37 9.19157L13.4422 9.97146C13.4422 10.5161 13.2137 10.9123 12.7566 11.1599L12.0711 11.5312C11.8546 11.655 11.6862 11.8283 11.566 12.0512L11.2052 12.7939C10.9646 13.2396 10.5918 13.4624 10.0867 13.4624L9.29288 13.3881C9.02828 13.3881 8.78774 13.4624 8.57125 13.6109L7.9218 14.0566C7.48883 14.3289 7.05587 14.3289 6.6229 14.0566L5.97344 13.6109C5.75696 13.4624 5.51642 13.3881 5.25182 13.3881L4.49412 13.4624C3.96494 13.4624 3.58008 13.2272 3.33954 12.7568L2.97874 12.0512C2.85847 11.8283 2.6901 11.655 2.47361 11.5312L1.78807 11.1599C1.33105 10.9123 1.10254 10.5285 1.10254 10.0086L1.1747 9.19157C1.1747 8.91923 1.10254 8.67165 0.958216 8.44883L0.561326 7.78035C0.296734 7.3347 0.296734 6.88905 0.561326 6.4434L0.958216 5.77493C1.10254 5.5521 1.1747 5.30451 1.1747 5.03216L1.10254 4.2523C1.10254 3.70758 1.33105 3.31145 1.78807 3.0639L2.47361 2.69257C2.6901 2.56871 2.85847 2.39536 2.97874 2.17253L3.33954 1.46696C3.58008 0.996582 3.96494 0.761391 4.49412 0.761391L5.25182 0.835684C5.51642 0.835684 5.75696 0.761391 5.97344 0.612807L6.6229 0.204269ZM10.1588 7.11187C10.1348 5.99775 9.65368 5.14357 8.71558 4.54933C7.75343 4.00471 6.79127 4.00471 5.82912 4.54933C4.89102 5.14357 4.40994 5.99775 4.38589 7.11187C4.40994 8.226 4.89102 9.08016 5.82912 9.67436C6.79127 10.219 7.75343 10.219 8.71558 9.67436C9.65368 9.08016 10.1348 8.226 10.1588 7.11187ZM0.380923 16.3963L1.93239 12.5711C1.95645 12.5711 1.96848 12.5835 1.96848 12.6082L2.29321 13.3138C2.79833 14.2051 3.544 14.6508 4.53022 14.6508L5.32399 14.5765V14.6136L5.97344 15.0222C6.16588 15.146 6.35831 15.245 6.55074 15.3193L5.21575 18.6245C5.11953 18.8473 4.95115 18.9711 4.71062 18.9959C4.49413 19.0206 4.32576 18.934 4.20549 18.7359L2.97877 16.9905L0.994296 17.2133C0.777811 17.238 0.597407 17.1638 0.453084 16.9905C0.332815 16.7924 0.308761 16.5943 0.380923 16.3963ZM9.32895 18.6245L7.99397 15.3193C8.18639 15.245 8.37882 15.146 8.57125 15.0222L9.22071 14.6136C9.22071 14.5889 9.22071 14.5765 9.22071 14.5765L10.0145 14.6508C11.0007 14.6508 11.7464 14.2051 12.2515 13.3138L12.5762 12.6082C12.5762 12.5835 12.5883 12.5711 12.6123 12.5711L14.1637 16.3963C14.2359 16.5943 14.2119 16.7924 14.0917 16.9905C13.9473 17.1638 13.7669 17.238 13.5504 17.2133L11.5659 16.9905L10.3392 18.7359C10.2189 18.9092 10.0506 18.9959 9.83408 18.9959C9.59355 18.9711 9.42517 18.8473 9.32895 18.6245Z" fill="#0D9488"/>
</svg>
