<svg width="26" height="18" viewBox="0 0 26 18" fill="none" xmlns="http://www.w3.org/2000/svg">
<path d="M24.6937 0.506279C25.0312 0.881239 25.2 1.31248 25.2 1.8C25.2 2.28752 25.0312 2.71876 24.6937 3.09372L10.2937 17.4937C9.91875 17.8312 9.4875 18 9 18C8.5125 18 8.08125 17.8312 7.70626 17.4937L0.50625 10.2937C0.16875 9.91875 0 9.4875 0 9C0 8.5125 0.16875 8.08125 0.50625 7.70626C0.88125 7.36875 1.3125 7.2 1.8 7.2C2.2875 7.2 2.71875 7.36875 3.09374 7.70626L9 12.6L22.1063 0.506279C22.4812 0.168759 22.9125 -7.15256e-07 23.4 -7.15256e-07C23.8875 -7.15256e-07 24.3188 0.168759 24.6937 0.506279Z" fill="#22C55E"/>
</svg>
