<svg width="17" height="16" viewBox="0 0 17 16" fill="none" xmlns="http://www.w3.org/2000/svg">
<path d="M14.9138 0.600311C14.3033 0.068345 14.1134 0.0683406 13.6499 0.0683406C13.1865 0.0683406 12.7652 0.245665 12.3861 0.600311L11.4382 1.53895L14.5347 4.6052L15.4826 3.66649C15.8407 3.29109 16.0197 2.87393 16.0197 2.415C16.0197 1.95607 16.0197 1.78474 15.4476 1.21261L14.9138 0.600311ZM5.4347 7.48374C5.24512 7.67147 5.1082 7.90092 5.02393 8.17209L4.07602 10.9255C3.99177 11.2175 3.86538 11.6928 4.07602 11.9222C4.30774 12.1308 4.76063 11.9789 5.05554 11.8954L7.86767 10.9568C8.12045 10.8733 8.34163 10.7378 8.53121 10.55L13.8396 5.29354L10.743 2.22723L5.4347 7.48374ZM3.03332 1.91438C2.16967 1.93521 1.45347 2.22723 0.884719 2.79044C0.315971 3.35364 0.0210647 4.06286 0 4.91808V12.9279C0.0210647 13.7832 0.315971 14.4924 0.884719 15.0556C1.45347 15.6188 2.16967 15.9108 3.03332 15.9316H11.1222C11.9858 15.9108 12.702 15.6188 13.2707 15.0556C13.8395 14.4924 14.1344 13.7832 14.1555 12.9279V9.92425C14.1555 9.63222 14.0607 9.39234 13.8711 9.20461C13.6816 9.01688 13.4393 8.92301 13.1444 8.92301C12.8495 8.92301 12.6073 9.01688 12.4177 9.20461C12.228 9.39234 12.1332 9.63222 12.1332 9.92425V12.9279C12.1332 13.22 12.0384 13.4598 11.8489 13.6476C11.6593 13.8353 11.4171 13.9292 11.1222 13.9292H3.03332C2.73842 13.9292 2.49617 13.8353 2.30659 13.6476C2.11701 13.4598 2.02222 13.22 2.02222 12.9279V4.91808C2.02222 4.62607 2.11701 4.38619 2.30659 4.19845C2.49617 4.01072 2.73842 3.91685 3.03332 3.91685H6.06663C6.36154 3.91685 6.60379 3.82298 6.79337 3.63525C6.98295 3.44751 7.07774 3.20763 7.07774 2.91562C7.07774 2.6236 6.98295 2.38372 6.79337 2.19599C6.60379 2.00825 6.36154 1.91438 6.06663 1.91438H3.03332Z" fill="#9CA3AF"/>
</svg>
