<svg width="17" height="19" viewBox="0 0 17 19" fill="none" xmlns="http://www.w3.org/2000/svg">
<path d="M6.02598 0.195218C6.37233 -0.0769391 6.71869 -0.0645419 7.06505 0.232406C8.07939 1.17247 9.04425 2.21151 9.95962 3.34954C10.3555 2.78053 10.8132 2.24865 11.3327 1.75392C11.6791 1.45697 12.0254 1.45697 12.3718 1.75392C13.015 2.37243 13.5964 3.06512 14.116 3.83201C14.6603 4.5742 15.1179 5.34114 15.489 6.13284C15.8848 6.89978 16.1941 7.64198 16.4168 8.35943C16.6394 9.07689 16.7508 9.72013 16.7508 10.2892C16.726 11.8725 16.355 13.3198 15.6375 14.631C14.8953 15.9422 13.8933 16.9937 12.6315 17.7854C11.3945 18.577 9.99674 18.9853 8.43812 19.01C6.8795 18.9853 5.46932 18.577 4.20758 17.7854C2.97058 16.9937 1.98098 15.9422 1.23879 14.631C0.521328 13.3198 0.150228 11.8725 0.125488 10.2892C0.174968 8.80475 0.731618 7.17189 1.79544 5.39058C2.85926 3.58465 4.26944 1.85286 6.02598 0.195218ZM8.51234 15.4474C9.42772 15.4474 10.2813 15.1877 11.0729 14.6681C11.8399 14.0991 12.3223 13.3445 12.5202 12.4044C12.6934 11.489 12.5573 10.586 12.112 9.6954C11.8646 9.34904 11.5801 9.3243 11.2585 9.62117L10.3307 10.6974C10.0091 10.9695 9.69986 10.9571 9.40298 10.6603C9.08136 10.2644 8.69789 9.78199 8.25257 9.21296C7.80725 8.64394 7.41141 8.14914 7.06505 7.72857C6.76817 7.43169 6.47129 7.41932 6.17441 7.69146C5.53117 8.48314 5.06111 9.16349 4.76424 9.7325C4.44261 10.3015 4.2818 10.8582 4.2818 11.4024C4.30654 12.6889 4.71475 13.6785 5.50643 14.3712C6.29811 15.0887 7.30008 15.4474 8.51234 15.4474Z" fill="#F97316"/>
</svg>
