<svg width="15" height="17" viewBox="0 0 15 17" fill="none" xmlns="http://www.w3.org/2000/svg">
<path d="M5.27971 0.174694C5.58963 -0.0688296 5.89955 -0.0577367 6.20947 0.20797C7.11709 1.04913 7.98044 1.97886 8.79951 2.99716C9.1537 2.48801 9.56324 2.01209 10.0281 1.56941C10.338 1.3037 10.648 1.3037 10.9579 1.56941C11.5335 2.12284 12.0537 2.74266 12.5186 3.42887C13.0056 4.09297 13.4151 4.77923 13.7471 5.48763C14.1013 6.17389 14.3781 6.838 14.5773 7.47997C14.7765 8.12195 14.8762 8.69751 14.8762 9.20667C14.8541 10.6234 14.522 11.9185 13.88 13.0917C13.2159 14.265 12.3193 15.2058 11.1903 15.9142C10.0835 16.6226 8.83272 16.9879 7.43808 17.01C6.04343 16.9879 4.78162 16.6226 3.65262 15.9142C2.54577 15.2058 1.66028 14.265 0.996171 13.0917C0.354194 11.9185 0.0221372 10.6234 0 9.20667C0.0442743 7.87844 0.54236 6.41737 1.49426 4.82346C2.44615 3.20753 3.70797 1.65794 5.27971 0.174694ZM7.50449 13.8223C8.32357 13.8223 9.0873 13.5898 9.79569 13.1249C10.4819 12.6158 10.9136 11.9406 11.0907 11.0994C11.2457 10.2803 11.1239 9.47231 10.7254 8.67538C10.5041 8.36546 10.2495 8.34332 9.96171 8.60896L9.13157 9.57193C8.84378 9.81544 8.56707 9.80437 8.30143 9.53873C8.01365 9.18454 7.67052 8.75286 7.27205 8.2437C6.87358 7.73455 6.51938 7.2918 6.20947 6.91548C5.94382 6.64983 5.67818 6.63877 5.41253 6.88227C4.83696 7.59066 4.41636 8.19943 4.15071 8.70858C3.86293 9.21774 3.71904 9.71582 3.71904 10.2028C3.74117 11.354 4.10643 12.2395 4.81482 12.8593C5.52321 13.5013 6.41977 13.8223 7.50449 13.8223Z" fill="#93C5FD"/>
</svg>
