<svg width="35" height="35" viewBox="0 0 35 35" fill="none" xmlns="http://www.w3.org/2000/svg">
<rect width="35" height="35" rx="17.5" fill="white" fill-opacity="0.8"/>
<path d="M24.5001 17.6694C24.4618 19.7016 23.8306 21.3387 22.6066 22.5806C21.3634 23.8226 19.6995 24.4624 17.6148 24.5C16.2951 24.4812 15.0997 24.1613 14.0287 23.5403C12.9576 22.9194 12.1066 22.082 11.4754 21.0282C10.8443 19.9745 10.5191 18.7984 10.5 17.5C10.5191 16.2016 10.8443 15.0255 11.4754 13.9718C12.1066 12.918 12.9576 12.0806 14.0287 11.4597C15.0997 10.8387 16.2951 10.5188 17.6148 10.5C19.5464 10.5376 21.1339 11.1492 22.377 12.3346L20.4549 14.1694C19.556 13.3791 18.5519 13.0215 17.4426 13.0967C16.3333 13.1532 15.3579 13.5672 14.5164 14.3387C13.694 15.129 13.2541 16.1828 13.1967 17.5C13.235 18.7608 13.6653 19.8051 14.4877 20.6331C15.3292 21.461 16.3716 21.8938 17.6148 21.9315C18.5519 21.9126 19.3074 21.7245 19.8812 21.3669C20.4549 21.0094 20.8853 20.6048 21.1722 20.1532C21.4399 19.6828 21.6025 19.2688 21.6598 18.9113H17.6148V16.4839H24.3853C24.4618 16.8226 24.5001 17.2177 24.5001 17.6694Z" fill="#374151"/>
</svg>
