<svg width="16" height="16" viewBox="0 0 16 16" fill="none" xmlns="http://www.w3.org/2000/svg">
<path d="M16.0001 8.19355C15.9563 10.5161 15.235 12.3871 13.8361 13.8064C12.4153 15.2258 10.5137 15.957 8.13115 16C6.62295 15.9785 5.25683 15.6129 4.03279 14.9032C2.80874 14.1935 1.83606 13.2366 1.11475 12.0323C0.393443 10.828 0.021858 9.48387 0 8C0.021858 6.51613 0.393443 5.17205 1.11475 3.96776C1.83606 2.76342 2.80874 1.80643 4.03279 1.09679C5.25683 0.387068 6.62295 0.021471 8.13115 1.49012e-08C10.3388 0.0430206 12.153 0.741928 13.5738 2.09672L11.377 4.19356C10.3497 3.29037 9.20218 2.88175 7.93443 2.96771C6.66667 3.03228 5.55191 3.50541 4.59016 4.3871C3.65027 5.29032 3.14754 6.49463 3.08196 8C3.12568 9.44086 3.61749 10.6344 4.55738 11.5806C5.51913 12.5269 6.71039 13.0215 8.13115 13.0645C9.20218 13.043 10.0656 12.828 10.7213 12.4194C11.3771 12.0107 11.8689 11.5484 12.1968 11.0323C12.5028 10.4946 12.6885 10.0215 12.7541 9.61291H8.13115V6.83872H15.8689C15.9563 7.22581 16.0001 7.67742 16.0001 8.19355Z" fill="#374151"/>
</svg>
