<svg width="18" height="16" viewBox="0 0 18 16" fill="none" xmlns="http://www.w3.org/2000/svg">
<g clip-path="url(#clip0_100_2)">
<path d="M17.9653 8.00156C17.9445 8.27234 17.8405 8.50146 17.6534 8.68892C17.4663 8.87639 17.2375 8.98054 16.9672 9.00137H16.0003V14.0004C15.9795 14.0837 15.9691 14.167 15.9691 14.2503V14.7502C15.9691 15.1043 15.8444 15.396 15.5949 15.6251C15.3662 15.875 15.0751 16 14.7215 16H14.2225C14.1809 16 14.1497 16 14.1289 16C14.0874 16 14.0458 16 14.0042 16H12.9749H12.2264C11.8729 16 11.5818 15.875 11.3531 15.6251C11.1036 15.396 10.9788 15.1043 10.9788 14.7502V14.0004V12.0008C10.9788 11.7092 10.8852 11.4696 10.6981 11.2822C10.511 11.0947 10.2718 11.001 9.98069 11.001H7.98458C7.69347 11.001 7.45435 11.0947 7.26721 11.2822C7.08008 11.4696 6.98651 11.7092 6.98651 12.0008V14.0004V14.7502C6.98651 15.1043 6.86175 15.396 6.61223 15.6251C6.3835 15.875 6.09239 16 5.73891 16H4.99036H3.99228C3.97149 16 3.9507 16 3.9299 16C3.90911 16 3.88832 16 3.86753 16C3.82595 16 3.78436 16 3.74277 16H3.24373C2.89025 16 2.59915 15.875 2.37042 15.6251C2.1209 15.396 1.99615 15.1043 1.99615 14.7502V11.2509C1.99615 11.2301 1.99615 11.1989 1.99615 11.1572L1.98386 9.00137H0.998069C0.706967 8.98054 0.467846 8.87639 0.280708 8.68892C0.0935692 8.50146 0 8.26192 0 7.97029C0 7.69951 0.103966 7.44956 0.311898 7.22043L8.29646 0.253075C8.52522 0.0655912 8.75394 -0.017726 8.98265 0.00312328C9.23214 0.00312328 9.45048 0.076015 9.63764 0.2218L17.6222 7.25171C17.8717 7.45999 17.9861 7.70994 17.9653 8.00156Z" fill="#0D9488"/>
</g>
<defs>
<clipPath id="clip0_100_2">
<rect width="17.9677" height="16" fill="white"/>
</clipPath>
</defs>
</svg>
