<svg width="16" height="21" viewBox="0 0 16 21" fill="none" xmlns="http://www.w3.org/2000/svg">
<path d="M6.08747 4.72473C4.73023 5.17113 3.66002 5.93974 2.87684 7.03056C2.08659 8.09863 1.681 9.32153 1.66005 10.6993C2.63615 9.748 3.81418 9.04563 5.19417 8.59217L7.13834 7.98848C7.48647 7.90534 7.79754 8.04808 8.07156 8.41671C8.15471 8.76486 8.05438 8.95557 7.77055 8.98886L7.33397 9.12442L5.53308 9.68362C4.96461 9.86014 4.43654 10.0864 3.94886 10.3625C3.1256 10.8425 2.41645 11.4492 1.82141 12.1824C1.03274 13.1752 0.505191 14.2864 0.238776 15.516C0.00216629 16.7612 0.0737197 18.0354 0.453437 19.3386L0.622892 19.8843C0.823703 20.3704 1.18129 20.5585 1.69566 20.4487C2.18179 20.2479 2.36993 19.8903 2.26007 19.3759L2.09061 18.8302C1.60654 17.1107 1.78625 15.5216 2.62975 14.063C3.40308 15.2689 4.43983 16.1187 5.73998 16.6125C7.04013 17.1063 8.39863 17.1457 9.81549 16.7307L9.84963 16.7201C11.366 16.2243 12.6004 15.3424 13.553 14.0743C14.5055 12.8062 15.1012 11.3123 15.3401 9.59273C15.6088 7.88879 15.4685 6.11236 14.9194 4.26346C14.4605 2.7855 13.7981 1.49532 12.9322 0.392935C12.8515 0.293367 12.7429 0.264769 12.6064 0.307137C12.4927 0.342438 12.4194 0.427521 12.3865 0.562391C12.2361 1.28224 11.9217 1.91587 11.4435 2.46328C10.9652 3.01067 10.3623 3.39733 9.63468 3.62327L6.08747 4.72473Z" fill="#0D9488"/>
</svg>
