<svg width="25" height="24" viewBox="0 0 25 24" fill="none" xmlns="http://www.w3.org/2000/svg">
<path d="M22.4349 0.868588C21.5166 0.0683467 21.2309 0.0683401 20.5337 0.0683401C19.8366 0.0683401 19.2029 0.33509 18.6325 0.868588L17.2065 2.28059L21.8647 6.89317L23.2906 5.48106C23.8293 4.91635 24.0986 4.28881 24.0986 3.59844C24.0986 2.90807 24.0986 2.65034 23.2379 1.78968L22.4349 0.868588ZM8.17547 11.2234C7.89028 11.5058 7.68431 11.851 7.55755 12.2589L6.1316 16.4008C6.00485 16.8401 5.81473 17.5551 6.1316 17.9002C6.48017 18.214 7.16146 17.9854 7.60509 17.8599L11.8354 16.4479C12.2157 16.3224 12.5484 16.1184 12.8336 15.836L20.819 7.92865L16.1608 3.31597L8.17547 11.2234ZM4.56305 2.84536C3.26385 2.87669 2.18646 3.31597 1.33089 4.16321C0.475318 5.01045 0.0316878 6.07733 0 7.36385V19.4132C0.0316878 20.6997 0.475318 21.7665 1.33089 22.6137C2.18646 23.461 3.26385 23.9003 4.56305 23.9316H16.7312C18.0304 23.9003 19.1078 23.461 19.9633 22.6137C20.8189 21.7665 21.2625 20.6997 21.2942 19.4132V14.8947C21.2942 14.4554 21.1516 14.0945 20.8665 13.8121C20.5813 13.5297 20.2169 13.3885 19.7733 13.3885C19.3296 13.3885 18.9652 13.5297 18.68 13.8121C18.3948 14.0945 18.2521 14.4554 18.2521 14.8947V19.4132C18.2521 19.8524 18.1095 20.2133 17.8244 20.4957C17.5392 20.7781 17.1748 20.9193 16.7312 20.9193H4.56305C4.11942 20.9193 3.75501 20.7781 3.46982 20.4957C3.18463 20.2133 3.04204 19.8524 3.04204 19.4132V7.36385C3.04204 6.92457 3.18463 6.56372 3.46982 6.2813C3.75501 5.99889 4.11942 5.85769 4.56305 5.85769H9.12609C9.56973 5.85769 9.93414 5.71648 10.2193 5.43407C10.5045 5.15166 10.6471 4.79081 10.6471 4.35152C10.6471 3.91224 10.5045 3.55139 10.2193 3.26898C9.93414 2.98657 9.56973 2.84536 9.12609 2.84536H4.56305Z" fill="#0D9488"/>
</svg>
