<svg width="9" height="15" viewBox="0 0 9 15" fill="none" xmlns="http://www.w3.org/2000/svg">
<path d="M8.71377 6.76841C8.90461 6.98047 9.00004 7.22433 9.00004 7.5C9.00004 7.77567 8.90461 8.01953 8.71377 8.23159L2.60662 14.3387C2.39457 14.5296 2.15071 14.625 1.87503 14.625C1.59937 14.625 1.3555 14.5296 1.14345 14.3387C0.952602 14.1267 0.857178 13.8828 0.857178 13.6071C0.857178 13.3315 0.952602 13.0876 1.14345 12.8756L6.55081 7.5L1.14345 2.12443C0.952602 1.91241 0.857178 1.66855 0.857178 1.39286C0.857178 1.11716 0.952602 0.873303 1.14345 0.661278C1.3555 0.470425 1.59937 0.374999 1.87503 0.374999C2.15071 0.374999 2.39457 0.470425 2.60662 0.661278L8.71377 6.76841Z" fill="black"/>
</svg>
