<svg width="9" height="15" viewBox="0 0 9 15" fill="none" xmlns="http://www.w3.org/2000/svg">
<path d="M0.286273 6.76841C0.0954242 6.98047 0 7.22433 0 7.5C0 7.77567 0.0954242 8.01953 0.286273 8.23159L6.39341 14.3387C6.60547 14.5296 6.84933 14.625 7.125 14.625C7.40067 14.625 7.64453 14.5296 7.85659 14.3387C8.04743 14.1267 8.14286 13.8828 8.14286 13.6071C8.14286 13.3315 8.04743 13.0876 7.85659 12.8756L2.44922 7.5L7.85659 2.12443C8.04743 1.91241 8.14286 1.66855 8.14286 1.39286C8.14286 1.11716 8.04743 0.873303 7.85659 0.661278C7.64453 0.470425 7.40067 0.374999 7.125 0.374999C6.84933 0.374999 6.60547 0.470425 6.39341 0.661278L0.286273 6.76841Z" fill="#9CA3AF"/>
</svg>
