<svg width="22" height="20" viewBox="0 0 22 20" fill="none" xmlns="http://www.w3.org/2000/svg">
<path d="M21.5695 8.00091C21.5481 7.89261 21.5036 7.7902 21.4391 7.70063C21.3745 7.61106 21.2915 7.53643 21.1955 7.48181L18.328 5.84761L18.3165 2.61574C18.3161 2.50444 18.2916 2.39454 18.2447 2.29363C18.1977 2.19272 18.1294 2.10321 18.0444 2.03128C17.0043 1.15138 15.8064 0.477098 14.5146 0.0442813C14.4128 0.00984755 14.305 -0.00289544 14.1981 0.006873C14.0911 0.0166414 13.9874 0.0487047 13.8936 0.100998L11.001 1.71789L8.10561 0.0981137C8.01174 0.0455263 7.90789 0.0132209 7.80075 0.00328571C7.69362 -0.00664947 7.58559 0.00600666 7.48365 0.040436C6.19259 0.476011 4.99603 1.15291 3.95763 2.03512C3.87281 2.10695 3.80457 2.1963 3.75761 2.29703C3.71064 2.39777 3.68607 2.50748 3.68558 2.61863L3.67116 5.85338L0.803625 7.48758C0.707689 7.5422 0.624636 7.61683 0.560111 7.7064C0.495586 7.79597 0.451102 7.89838 0.429681 8.00668C0.16732 9.32547 0.16732 10.683 0.429681 12.0018C0.451102 12.1101 0.495586 12.2125 0.560111 12.3021C0.624636 12.3917 0.707689 12.4663 0.803625 12.5209L3.67116 14.1551L3.6827 17.3879C3.68305 17.4992 3.70755 17.6091 3.75452 17.7101C3.80149 17.811 3.86981 17.9005 3.95475 17.9724C4.99492 18.8523 6.19278 19.5266 7.48462 19.9594C7.58635 19.9938 7.69416 20.0066 7.80112 19.9968C7.90808 19.987 8.0118 19.955 8.10561 19.9027L11.001 18.281L13.8964 19.9008C14.011 19.9646 14.1402 19.9978 14.2713 19.9969C14.3553 19.9968 14.4388 19.9832 14.5184 19.9565C15.8091 19.5211 17.0056 18.8449 18.0444 17.9638C18.1292 17.8919 18.1975 17.8026 18.2444 17.7018C18.2914 17.6011 18.316 17.4914 18.3165 17.3803L18.3309 14.1455L21.1984 12.5113C21.2944 12.4567 21.3774 12.3821 21.4419 12.2925C21.5065 12.2029 21.551 12.1005 21.5724 11.9922C21.8333 10.6745 21.8323 9.31827 21.5695 8.00091ZM11.001 13.8446C10.2405 13.8446 9.4971 13.6191 8.86476 13.1966C8.23243 12.7741 7.73958 12.1735 7.44855 11.4709C7.15752 10.7683 7.08137 9.99517 7.22974 9.24928C7.3781 8.50339 7.74432 7.81825 8.28208 7.28049C8.81984 6.74273 9.50498 6.37651 10.2509 6.22815C10.9968 6.07978 11.7699 6.15593 12.4725 6.44696C13.1751 6.73799 13.7757 7.23084 14.1982 7.86317C14.6207 8.49551 14.8462 9.23894 14.8462 9.99944C14.8462 11.0192 14.4411 11.9973 13.72 12.7184C12.9989 13.4395 12.0208 13.8446 11.001 13.8446Z" fill="#0D9488"/>
</svg>
