<svg width="10" height="19" viewBox="0 0 10 19" fill="none" xmlns="http://www.w3.org/2000/svg">
<path d="M0.346541 8.61439C0.115514 8.87109 0 9.16629 0 9.5C0 9.83371 0.115514 10.1289 0.346541 10.3856L7.73939 17.7785C7.99609 18.0095 8.29129 18.125 8.625 18.125C8.95871 18.125 9.25391 18.0095 9.51061 17.7785C9.74163 17.5218 9.85714 17.2266 9.85714 16.8929C9.85714 16.5592 9.74163 16.2639 9.51061 16.0072L2.96485 9.5L9.51061 2.99274C9.74163 2.73608 9.85714 2.44088 9.85714 2.10714C9.85714 1.77341 9.74163 1.47821 9.51061 1.22155C9.25391 0.990516 8.95871 0.875 8.625 0.875C8.29129 0.875 7.99609 0.990516 7.73939 1.22155L0.346541 8.61439Z" fill="#82C3BD"/>
</svg>
