<svg width="18" height="16" viewBox="0 0 18 16" fill="none" xmlns="http://www.w3.org/2000/svg">
<path d="M10.5383 0.100826C10.1264 0.306809 9.909 0.638628 9.8861 1.09629L9.66641 3.2932H6.0415C4.32517 3.33895 2.90633 3.93394 1.78499 5.07815C0.640766 6.19951 0.045769 7.61837 0 9.3347C0.0228845 10.6162 0.274614 11.6804 0.755188 12.5271C1.21287 13.3738 1.71633 14.026 2.26556 14.4837C2.81479 14.9185 3.20383 15.1931 3.43267 15.3076C3.52421 15.3533 3.61575 15.3762 3.70729 15.3762C4.11921 15.3304 4.34806 15.1016 4.39382 14.6897C4.37094 14.4379 4.25652 14.2205 4.05056 14.0375C3.89037 13.8773 3.73017 13.637 3.56998 13.3166C3.40979 13.0191 3.31825 12.6072 3.29537 12.0808C3.31825 11.1426 3.63863 10.3645 4.25651 9.74663C4.8744 9.12874 5.65247 8.80836 6.59073 8.78548L9.66641 8.78387L9.8861 10.9824C9.909 11.4401 10.1264 11.7719 10.5383 11.9779C10.9731 12.1609 11.3622 12.1037 11.7054 11.8062L17.1977 6.86318C17.4494 6.63435 17.5753 6.35974 17.5753 6.03934C17.5753 5.71894 17.4494 5.44433 17.1977 5.2155L11.7054 0.272447C11.3622 -0.0250443 10.9731 -0.0822495 10.5383 0.100826Z" fill="#0D9488"/>
</svg>
