<svg width="14" height="16" viewBox="0 0 14 16" fill="none" xmlns="http://www.w3.org/2000/svg">
<path d="M4.21875 0.562515L4 0.999999H1C0.708334 0.999999 0.46875 1.09375 0.28125 1.28126C0.0937501 1.46876 0 1.70834 0 2C0 2.29166 0.0937501 2.53124 0.28125 2.71874C0.46875 2.90625 0.708334 3 1 3H13C13.2917 3 13.5312 2.90625 13.7187 2.71874C13.9062 2.53124 14 2.29166 14 2C14 1.70834 13.9062 1.46876 13.7187 1.28126C13.5312 1.09375 13.2917 0.999999 13 0.999999H10L9.78125 0.562515C9.59375 0.208305 9.29167 0.0207993 8.87499 -7.15256e-07H5.12501C4.70834 0.0207993 4.40625 0.208305 4.21875 0.562515ZM12.9466 4H1.14286L1.65625 14.5937C1.69792 14.9896 1.85417 15.3229 2.12501 15.5937C2.41667 15.8646 2.76042 16 3.15625 16L6.85714 15.4286L10.8437 16C11.2396 16 11.5833 15.8646 11.875 15.5937C12.1458 15.3229 12.3021 14.9896 12.3438 14.5937L12.9466 4Z" fill="#9CA3AF"/>
</svg>
