<svg width="18" height="19" viewBox="0 0 18 19" fill="none" xmlns="http://www.w3.org/2000/svg">
<path d="M6.40757 0.195218C6.75393 -0.0769391 7.10028 -0.0645419 7.44664 0.232406C8.46099 1.17247 9.42584 2.21151 10.3412 3.34954C10.7371 2.78053 11.1947 2.24865 11.7143 1.75392C12.0606 1.45697 12.407 1.45697 12.7534 1.75392C13.3966 2.37243 13.978 3.06512 14.4975 3.83201C15.0419 4.5742 15.4995 5.34114 15.8706 6.13284C16.2664 6.89978 16.5757 7.64198 16.7983 8.35943C17.021 9.07689 17.1323 9.72013 17.1323 10.2892C17.1076 11.8725 16.7365 13.3198 16.0191 14.631C15.2769 15.9422 14.2749 16.9937 13.0131 17.7854C11.7761 18.577 10.3783 18.9853 8.81971 19.01C7.26109 18.9853 5.85091 18.577 4.58917 17.7854C3.35217 16.9937 2.36257 15.9422 1.62038 14.631C0.90292 13.3198 0.53182 11.8725 0.50708 10.2892C0.55656 8.80475 1.11321 7.17189 2.17703 5.39058C3.24085 3.58465 4.65103 1.85286 6.40757 0.195218ZM8.89393 15.4474C9.80931 15.4474 10.6628 15.1877 11.4545 14.6681C12.2215 14.0991 12.7039 13.3445 12.9018 12.4044C13.075 11.489 12.9389 10.586 12.4936 9.6954C12.2462 9.34904 11.9617 9.3243 11.6401 9.62117L10.7123 10.6974C10.3907 10.9695 10.0814 10.9571 9.78457 10.6603C9.46295 10.2644 9.07948 9.78199 8.63416 9.21296C8.18884 8.64394 7.793 8.14914 7.44664 7.72857C7.14977 7.43169 6.85289 7.41932 6.556 7.69146C5.91276 8.48314 5.4427 9.16349 5.14583 9.7325C4.82421 10.3015 4.6634 10.8582 4.6634 11.4024C4.68813 12.6889 5.09634 13.6785 5.88802 14.3712C6.6797 15.0887 7.68167 15.4474 8.89393 15.4474Z" fill="#93C5FD"/>
</svg>
