<svg width="40" height="41" viewBox="0 0 40 41" fill="none" xmlns="http://www.w3.org/2000/svg">
<path d="M20 40.5C23.6459 40.4479 26.9792 39.5625 30 37.8438C33.0208 36.0729 35.4687 33.625 37.3438 30.5C39.1146 27.3229 40 23.9896 40 20.5C40 17.0104 39.1146 13.6771 37.3438 10.5C35.4687 7.37496 33.0208 4.92704 30 3.15622C26.9792 1.43748 23.6459 0.552072 20 0.499998C16.3541 0.552072 13.0208 1.43748 10 3.15622C6.97917 4.92704 4.53125 7.37496 2.65624 10.5C0.885415 13.6771 0 17.0104 0 20.5C0 23.9896 0.885415 27.3229 2.65624 30.5C4.53125 33.625 6.97917 36.0729 10 37.8438C13.0208 39.5625 16.3541 40.4479 20 40.5ZM20 9.94444C21.1459 10.0486 21.875 11.2731 21.875 12.375V21.125C21.7709 22.2709 21.1459 22.8959 20 23C18.8541 22.8959 18.2291 22.2709 18.125 21.125V12.375C18.125 11.2597 18.8541 10.0486 20 9.94444ZM17.5 28C17.5 27.2708 17.7344 26.6719 18.2031 26.2031C18.6719 25.7344 19.2708 25.5 20 25.5C20.7292 25.5 21.3282 25.7344 21.7969 26.2031C22.2656 26.6719 22.5 27.2708 22.5 28C22.5 28.7292 22.2656 29.3281 21.7969 29.7969C21.3282 30.2656 20.7292 30.5 20 30.5C19.2708 30.5 18.6719 30.2656 18.2031 29.7969C17.7344 29.3281 17.5 28.7292 17.5 28Z" fill="#EF4444"/>
</svg>
